<svg width="99" height="35" viewBox="0 0 99 35" fill="none" xmlns="http://www.w3.org/2000/svg">
<path d="M98.0586 49C98.0586 49.7847 98.0391 50.5629 98.0002 51.3347C96.7868 77.3131 75.3234 98 49.0326 98C36.9255 98 25.8433 93.6162 17.2917 86.3466C14.8909 84.3102 12.6848 82.0406 10.7188 79.5764C4.82743 72.2162 1.01872 63.1242 0.181688 53.1763C0.0584701 51.8016 0 50.4074 0 49C0 47.8521 0.0389222 46.7173 0.12339 45.5954C0.259695 43.4749 0.545215 41.3868 0.953959 39.3504C2.68632 30.6737 6.71564 22.8205 12.3864 16.4522C21.3599 6.36179 34.4533 0 49.0326 0C62.9631 0 75.5311 5.804 84.4656 15.1293C92.8809 23.9293 98.0586 35.8551 98.0586 49Z" fill="#3895FF" fill-opacity="0.5"/>
<path d="M98.0598 48.9999C98.0598 49.7846 98.0402 50.5629 98.0013 51.3346H93.8942L85.0961 42.5345H82.0012L80.3531 44.1817V46.0622L77.135 49.2724V51.2048L78.5949 52.6638V55.0762L73.1187 60.5559V67.0732L70.3029 69.8811V76.2169L65.1512 81.3658H62.4001L58.6304 77.5981V72.073L56.1842 69.6282V61.9694L51.3244 57.1058H44.4987L39.7168 52.3265V45.9001L46.0624 39.5643H52.5509L55.3798 36.7369L59.13 40.4916H66.2931L68.7912 37.9949V35.1222L66.8511 33.1832H64.5802L62.6921 35.0702H57.7286L54.9969 32.3335L49.7933 37.5344H47.2044L45.712 36.0428V33.4879L50.4745 28.7279H53.4202L55.5224 26.6268V25.4853L53.5305 23.488V21.964L58.5331 16.9576H64.1327L67.5326 20.3557H72.4508L75.338 17.4699H82.1249L84.4672 15.1289C92.8821 23.9292 98.0598 35.855 98.0598 48.9999Z" fill="#3895FF"/>
<path d="M24.6552 27.2868L18.1409 33.7912H12.496L7.79199 38.4993V41.6833H6.47483L4.13895 39.3488H0.953125C2.68549 30.672 6.71481 22.8189 12.3856 16.4506H15.5129L16.7845 15.1797L19.0295 17.4234L16.3562 20.0952H12.3728L10.6729 21.7942V26.1391H13.664L16.8692 22.9356H20.3081L24.6552 27.2868Z" fill="#3895FF"/>
<path d="M18.3125 13.6504L20.6035 15.9402L23.0643 13.4808H25.2705L23.8281 12.0391H19.8399L18.3125 13.6504Z" fill="#3895FF"/>
<path d="M26.8097 13.2514L30.0341 16.4741V18.3399L33.3435 21.6474L36.7376 18.2551H39.2832L47.2171 10.3253L44.4169 7.52661H35.8041L34.4252 6.14844L32.1553 8.41718H29.8643C29.8643 8.41718 26.5126 12.9545 26.8097 13.2514Z" fill="#3895FF"/>
</svg>
