<svg width="278" height="120" viewBox="0 0 278 120" fill="none" xmlns="http://www.w3.org/2000/svg">
<path d="M-11.5321 114.104L-11.3465 113.64L-11.6375 113.524L-11.869 113.735L-11.5321 114.104ZM37.466 133.686L37.2804 134.15L37.5446 134.256L37.7704 134.083L37.466 133.686ZM141.853 53.5792L142.091 53.1392L141.806 52.9854L141.549 53.1825L141.853 53.5792ZM197.242 83.4858L197.005 83.9258L197.339 84.1063L197.603 83.8325L197.242 83.4858ZM272.333 2.66675C272.333 4.13951 273.527 5.33341 275 5.33341C276.473 5.33341 277.667 4.13951 277.667 2.66675C277.667 1.19399 276.473 8.13007e-05 275 8.13007e-05C273.527 8.13007e-05 272.333 1.19399 272.333 2.66675ZM-90 185.667L-89.6631 186.036L-11.1952 114.474L-11.5321 114.104L-11.869 113.735L-90.3369 185.297L-90 185.667ZM-11.5321 114.104L-11.7177 114.569L37.2804 134.15L37.466 133.686L37.6515 133.222L-11.3465 113.64L-11.5321 114.104ZM37.466 133.686L37.7704 134.083L142.158 53.9759L141.853 53.5792L141.549 53.1825L37.1616 133.29L37.466 133.686ZM141.853 53.5792L141.616 54.0192L197.005 83.9258L197.242 83.4858L197.48 83.0458L142.091 53.1392L141.853 53.5792ZM197.242 83.4858L197.603 83.8325L275.36 3.01341L275 2.66675L274.64 2.32008L196.882 83.1391L197.242 83.4858Z" fill="#FFD500"/>
</svg>