<svg width="107" height="264" viewBox="0 0 107 264" fill="none" xmlns="http://www.w3.org/2000/svg">
<g clip-path="url(#clip0_766_13341)">
<path d="M54.4729 124.211C47.5922 124.675 42.1549 130.384 42.1549 137.362C42.1549 144.34 47.5922 150.056 54.4729 150.513M54.4729 124.211C61.3501 124.675 66.7839 130.384 66.7839 137.362C66.7839 144.34 61.3501 150.056 54.4729 150.513M54.4729 124.211L55.1669 40.2938H55.1703C66.5757 80.1714 74.1609 120.111 79.6571 159.989H54.4729V159.986M54.4729 150.513V159.986M54.4729 159.986H29.2887C34.7814 120.101 43.4075 79.8151 54.8199 39.9305M59.5042 343.009H95.9377M59.6777 353.043H96.1112M59.8512 363.076H96.2847M60.0247 373.109H96.4582M1.58531 383.485H106.413C108.249 322.247 105.657 261.008 97.912 199.766H85.9063V187.519H96.2916C87.7592 125.581 73.911 63.644 54.001 1.70312C34.0875 63.644 20.2393 125.581 11.7034 187.519H22.0887V199.766H10.0865C2.34174 261.005 -0.253714 322.243 1.58531 383.485Z" stroke="#8694B9" stroke-width="1.20012" stroke-miterlimit="10"/>
</g>
<defs>
<clipPath id="clip0_766_13341">
<rect width="107" height="338" fill="white"/>
</clipPath>
</defs>
</svg>