<svg width="31" height="16" viewBox="0 0 31 16" fill="none" xmlns="http://www.w3.org/2000/svg">
<path d="M6.24156 0.0614606C9.2511 -0.383489 11.9216 1.65388 13.4931 3.76543C13.4939 3.76651 13.4948 3.76755 13.4957 3.76863C14.7447 5.39677 15.9733 7.02153 17.2271 8.58087C18.9834 10.7163 20.6916 13.0315 23.0955 13.3995C23.0963 13.3996 23.0971 13.3997 23.0979 13.3998C25.5048 13.8328 28.8803 11.6276 29.2414 8.9652C29.2415 8.96462 29.2415 8.96403 29.2415 8.96345C29.2711 6.17694 28.0038 3.05707 25.5065 1.86183C25.4684 1.84356 25.4299 1.82557 25.3911 1.80809C23.9556 1.13908 22.3467 1.04632 20.8794 1.65069C19.7667 2.09125 18.7475 2.83081 17.8013 3.6591C17.6345 3.48534 17.4676 3.31161 17.3007 3.13785C18.2052 2.19413 19.2347 1.31366 20.4895 0.738002C22.1358 -0.0615068 24.2158 0.000618737 25.8532 0.781203C25.9004 0.802421 25.9473 0.824066 25.9937 0.846323C29.0712 2.38248 30.3376 5.84241 30.3249 9.0003L30.325 9.0014C29.7117 12.5569 26.7982 15.3929 22.8882 15.3763C22.887 15.3762 22.8857 15.3761 22.8844 15.376C19.346 15.105 16.9549 12.4766 15.1177 10.2824C13.7915 8.63222 12.6288 6.92749 11.4798 5.20996C11.4212 5.12146 11.4786 5.2081 11.478 5.20717C10.2351 3.31617 8.51856 1.67599 6.387 1.7143C4.26976 1.72254 2.16355 3.49463 1.43201 5.66973C1.43147 5.67134 1.43098 5.67303 1.43044 5.67464C0.0929387 9.29687 2.78892 13.8644 6.6682 14.1421C6.67193 14.1424 6.67574 14.1426 6.67946 14.143C7.71469 14.242 8.7567 14.1059 9.70988 13.7104C10.7938 13.2613 11.8072 12.4789 12.4421 11.4987C12.5017 11.4007 12.5611 11.3025 12.6205 11.2044C12.8224 11.3134 13.0243 11.4223 13.2262 11.5313C13.1768 11.6348 13.1272 11.7382 13.0779 11.8418C12.4368 13.0911 11.3706 14.0359 10.1173 14.6319C9.02231 15.1489 7.77466 15.3387 6.57862 15.2224C6.57431 15.222 6.56989 15.2216 6.56558 15.2212C1.93418 14.8533 -1.14351 9.5806 0.404098 5.32565C0.404743 5.32376 0.405212 5.32176 0.405859 5.31986C1.2841 2.82406 3.30447 0.519329 6.24156 0.0614606Z" fill="#FFD500"/>
</svg>
