<svg width="85" height="79" viewBox="0 0 85 79" fill="none" xmlns="http://www.w3.org/2000/svg">
<path d="M4.03711 27.9033C7.05027 22.4278 12.2282 17.8932 19.0859 17.0889C27.3117 16.1897 34.3604 22.0022 38.4141 27.9033C38.4162 27.9063 38.4188 27.9091 38.4209 27.9121C41.6479 32.4659 44.8194 37.0086 48.0664 41.376C52.62 47.361 57.0246 53.8302 63.5205 55.0781C63.5226 55.0786 63.5252 55.0787 63.5273 55.0791C70.0247 56.5036 79.4256 50.8581 80.6816 43.6592C80.6819 43.6576 80.6826 43.6559 80.6826 43.6543C81.0502 36.0836 77.9271 27.4728 71.2627 23.9668C71.1611 23.9132 71.0577 23.8611 70.9541 23.8096C67.1214 21.8433 62.7584 21.4255 58.708 22.917C55.6382 23.9998 52.792 25.9048 50.1348 28.0586C49.6992 27.5692 49.2636 27.0793 48.8281 26.5898C51.3838 24.1181 54.2724 21.8308 57.7422 20.3955C62.2992 18.3922 67.9463 18.7751 72.3164 21.0654C72.4426 21.1279 72.5677 21.1916 72.6914 21.2568C76.4915 23.3371 79.1916 26.5 80.9619 30.1475V19.3242H84.999V63.7617C84.999 66.6685 84.2726 69.2256 82.8193 71.4326C81.4197 73.6397 79.4276 75.3625 76.8438 76.6006C74.2598 77.8387 71.2178 78.458 67.7188 78.458C62.6587 78.458 58.4596 77.3001 55.1221 74.9854C51.8386 72.6706 49.9007 69.6022 49.3086 65.7803H53.5879C53.9647 68.418 55.3919 70.518 57.8682 72.0791C60.3443 73.64 63.6279 74.4209 67.7188 74.4209C71.9175 74.4209 75.1745 73.4515 77.4893 71.5137C79.804 69.5758 80.9618 66.8573 80.9619 63.3584V50.6299C77.2894 56.7093 70.6959 60.7646 62.7529 60.4297C62.7497 60.4293 62.7464 60.4291 62.7432 60.4287C53.1537 59.3273 46.9256 51.9372 42.1582 45.7842C38.7237 41.1622 35.7389 36.4087 32.793 31.6221C32.645 31.3792 32.7853 31.6098 32.7881 31.6143C29.6049 26.3464 25.1081 21.7112 19.3105 21.5957C13.5552 21.4001 7.64806 25.9996 5.43555 31.8359C5.43389 31.8403 5.43232 31.8453 5.43066 31.8496C1.42225 41.557 8.27971 54.2489 18.7949 55.4033C18.8049 55.4046 18.8153 55.4059 18.8252 55.4072C21.6287 55.7831 24.475 55.5208 27.1064 54.5439C30.0988 53.4351 32.934 51.4131 34.7607 48.8145C34.9328 48.5542 35.1037 48.2927 35.2754 48.0322C35.8127 48.3491 36.3504 48.6665 36.8877 48.9834C36.7429 49.2596 36.5976 49.5361 36.4531 49.8125C34.5818 53.1418 31.5859 55.6002 28.1182 57.0908C25.0888 58.383 21.6781 58.7703 18.4395 58.3311C18.4278 58.3295 18.4159 58.3277 18.4043 58.3262C12.0887 57.5828 6.97177 53.5032 4.03711 48.1807V56.5234H0V0H4.03711V27.9033Z" fill="white"/>
<path d="M35.7837 72.8946C35.7837 73.6725 35.859 74.3374 35.997 74.7514H34.755C34.6672 74.4377 34.617 74.0614 34.5919 73.6599C34.1528 74.4126 33.3625 74.8894 32.4341 74.8894C31.2172 74.8894 30.3516 74.099 30.3516 72.9825C30.3516 71.9286 31.0165 71.2888 32.1957 71.2136L33.9019 71.1132C34.3912 71.0756 34.5794 70.9125 34.5794 70.5361V70.511C34.5794 69.8336 33.9521 69.2941 33.1617 69.2941C32.2459 69.2941 31.7566 69.6956 31.6688 70.4734H30.4017C30.4896 69.1687 31.5685 68.3281 33.1617 68.3281C34.6923 68.3281 35.7837 69.2941 35.7837 70.6365V72.8946ZM31.5936 72.8946C31.5936 73.4843 32.0828 73.8606 32.8355 73.8606C33.8266 73.8606 34.5794 73.1205 34.5794 72.1168V71.9161L32.6348 72.029C31.9448 72.0792 31.5936 72.3677 31.5936 72.8946Z" fill="white"/>
<path d="M27.6387 66.4453H29.0312V67.6497H27.6387V66.4453ZM27.7265 68.4777H28.9434V74.7504H27.7265V68.4777Z" fill="white"/>
<path d="M20.3087 65.9688H21.5256V69.5818C21.9647 68.7789 22.6924 68.3147 23.6207 68.3147C25.2265 68.3147 26.318 69.6195 26.318 71.5891C26.318 73.5712 25.2265 74.8885 23.6207 74.8885C22.6924 74.8885 21.9647 74.4118 21.5256 73.6089V74.7505H20.3087V65.9688ZM25.0634 71.5891C25.0634 70.1965 24.4111 69.3936 23.2945 69.3936C22.178 69.3936 21.5256 70.1965 21.5256 71.5891C21.5256 72.9942 22.178 73.8096 23.2945 73.8096C24.4111 73.8096 25.0634 72.9942 25.0634 71.5891Z" fill="white"/>
<path d="M18.7622 72.8946C18.7622 73.6725 18.8375 74.3374 18.9755 74.7514H17.7335C17.6457 74.4377 17.5955 74.0614 17.5704 73.6599C17.1313 74.4126 16.341 74.8894 15.4126 74.8894C14.1957 74.8894 13.3301 74.099 13.3301 72.9825C13.3301 71.9286 13.995 71.2888 15.1742 71.2136L16.8804 71.1132C17.3697 71.0756 17.5579 70.9125 17.5579 70.5361V70.511C17.5579 69.8336 16.9306 69.2941 16.1402 69.2941C15.2244 69.2941 14.7352 69.6956 14.6473 70.4734H13.3803C13.4681 69.1687 14.547 68.3281 16.1402 68.3281C17.6708 68.3281 18.7622 69.2941 18.7622 70.6365V72.8946ZM14.5721 72.8946C14.5721 73.4843 15.0613 73.8606 15.8141 73.8606C16.8051 73.8606 17.5579 73.1205 17.5579 72.1168V71.9161L15.6133 72.029C14.9233 72.0792 14.5721 72.3677 14.5721 72.8946Z" fill="white"/>
<path d="M8.86719 68.477H10.0841V69.4556C10.4981 68.753 11.163 68.3516 11.8028 68.3516H12.1415V69.6186H11.8154C10.8494 69.6186 10.0841 70.2334 10.0841 71.1241V74.7497H8.86719V68.477Z" fill="white"/>
<path d="M7.62788 74.7522H6.32316L5.63317 72.7574H2.34628L1.66883 74.7522H0.351562L3.29973 66.5977H4.69226L7.62788 74.7522ZM3.97718 67.9651L2.69755 71.7287H5.2819L3.97718 67.9651Z" fill="white"/>
</svg>