<svg width="368" height="148" viewBox="0 0 368 148" fill="none" xmlns="http://www.w3.org/2000/svg">
<path d="M-7.88424 148.206L-7.69811 147.742L-7.98991 147.625L-8.22182 147.837L-7.88424 148.206ZM55.8804 173.78L55.6942 174.244L55.9592 174.35L56.1854 174.176L55.8804 173.78ZM191.727 69.159L191.965 68.7194L191.679 68.5645L191.422 68.7628L191.727 69.159ZM263.808 108.217L263.57 108.657L263.905 108.839L264.169 108.563L263.808 108.217ZM362.333 2.66675C362.333 4.13951 363.527 5.33341 365 5.33341C366.473 5.33341 367.667 4.13951 367.667 2.66675C367.667 1.19399 366.473 8.13007e-05 365 8.13007e-05C363.527 8.13007e-05 362.333 1.19399 362.333 2.66675ZM-110 241.667L-109.662 242.036L-7.54666 148.574L-7.88424 148.206L-8.22182 147.837L-110.338 241.298L-110 241.667ZM-7.88424 148.206L-8.07036 148.67L55.6942 174.244L55.8804 173.78L56.0665 173.316L-7.69811 147.742L-7.88424 148.206ZM55.8804 173.78L56.1854 174.176L192.032 69.5551L191.727 69.159L191.422 68.7628L55.5753 173.383L55.8804 173.78ZM191.727 69.159L191.488 69.5986L263.57 108.657L263.808 108.217L264.047 107.778L191.965 68.7194L191.727 69.159ZM263.808 108.217L264.169 108.563L365.361 3.01277L365 2.66675L364.639 2.32073L263.447 107.871L263.808 108.217Z" fill="#0D2972"/>
</svg>