<svg width="483" height="99" viewBox="0 0 483 99" fill="none" xmlns="http://www.w3.org/2000/svg">
<g clip-path="url(#clip0_1310_678)">
<path d="M482.891 21.2507C483.953 31.0923 477.086 39.5255 470.115 44.3755L470.104 44.3834C464.724 48.2443 459.357 52.0393 454.198 55.9243C447.127 61.3724 439.485 66.6417 438.011 74.4137L438.009 74.4216C437.01 79.0346 438.342 83.2302 441.409 86.9178C446.094 92.5505 453.801 95.8678 460.784 93.6517C467.371 91.5612 472.955 86.5202 474.764 83.6766C474.828 83.555 474.89 83.4319 474.951 83.308C477.274 78.7223 477.768 73.5018 476.006 68.6557C474.847 65.3289 472.891 62.2215 470.642 59.3029C470.248 58.7913 470.306 58.0607 470.786 57.6282C471.276 57.1864 472.03 57.2135 472.476 57.7C475.081 60.5426 477.446 63.7355 478.984 67.5003C481.351 72.9526 480.898 79.7088 478.192 84.9373C478.118 85.0883 478.043 85.2381 477.966 85.3862C469.296 99.6949 454.795 99.7889 448.628 98.0472C438.009 94.4326 431.159 86.2087 431.688 73.4959L431.69 73.4837C432.991 62.0103 441.722 54.5587 448.991 48.8548C454.451 44.7456 460.066 41.175 465.721 37.6504C465.728 37.646 465.735 37.6419 465.741 37.6379C465.738 37.6402 465.734 37.6424 465.73 37.6446L465.763 37.6245C465.825 37.5861 465.939 37.5161 465.741 37.6379C471.96 33.8299 477.429 28.4521 477.566 21.5198C477.797 14.6337 472.363 7.56604 465.468 4.91896L465.453 4.91323C453.985 0.117193 438.99 8.32116 437.626 20.902C437.625 20.9141 437.624 20.9265 437.622 20.9385C437.178 24.2928 437.488 27.6981 438.642 30.8465C439.952 34.4267 442.341 37.8186 445.411 40.0042C445.927 40.3493 446.086 41.0471 445.774 41.5831C445.462 42.1183 444.779 42.3192 444.232 42.0295C440.299 39.7906 437.395 36.2068 435.633 32.0578C434.107 28.4332 433.649 24.3526 434.168 20.4775L434.174 20.4352C435.919 5.41969 453.224 -3.93863 466.698 1.61869C466.704 1.62102 466.711 1.62279 466.717 1.62513C474.624 4.78881 481.778 11.6431 482.891 21.2507Z" fill="#5471BC"/>
<path d="M421.451 21.2507C422.514 31.0923 415.647 39.5255 408.675 44.3755L408.665 44.3834C403.285 48.2443 397.918 52.0393 392.758 55.9243C385.688 61.3724 378.045 66.6417 376.571 74.4137L376.57 74.4216C375.571 79.0346 376.903 83.2302 379.97 86.9178C384.654 92.5505 392.362 95.8678 399.345 93.6517C405.932 91.5612 411.516 86.5202 413.325 83.6766C413.388 83.555 413.451 83.4319 413.512 83.308C415.835 78.7223 416.328 73.5018 414.566 68.6557C413.408 65.3289 411.452 62.2215 409.203 59.3029C408.808 58.7913 408.867 58.0607 409.347 57.6282C409.837 57.1864 410.591 57.2135 411.036 57.7C413.641 60.5426 416.007 63.7355 417.544 67.5003C419.911 72.9526 419.458 79.7088 416.753 84.9373C416.679 85.0883 416.604 85.2381 416.526 85.3862C407.857 99.6949 393.356 99.7889 387.189 98.0472C376.57 94.4326 369.72 86.2087 370.249 73.4959L370.25 73.4837C371.552 62.0103 380.282 54.5587 387.551 48.8548C393.012 44.7456 398.627 41.175 404.282 37.6504C404.289 37.646 404.296 37.6419 404.302 37.6379C404.298 37.6402 404.295 37.6424 404.291 37.6446L404.324 37.6245C404.386 37.5861 404.499 37.5161 404.302 37.6379C410.521 33.8299 415.99 28.4521 416.126 21.5198C416.358 14.6337 410.924 7.56604 404.029 4.91896L404.013 4.91323C392.545 0.117193 377.551 8.32116 376.187 20.902C376.185 20.9141 376.184 20.9265 376.183 20.9385C375.738 24.2928 376.049 27.6981 377.203 30.8465C378.513 34.4267 380.902 37.8186 383.972 40.0042C384.487 40.3493 384.647 41.0471 384.334 41.5831C384.023 42.1183 383.34 42.3192 382.793 42.0295C378.859 39.7906 375.955 36.2068 374.194 32.0578C372.667 28.4332 372.21 24.3526 372.729 20.4775L372.734 20.4352C374.479 5.41969 391.785 -3.93863 405.259 1.61869C405.265 1.62102 405.271 1.62279 405.277 1.62513C413.184 4.78881 420.339 11.6431 421.451 21.2507Z" fill="#5471BC"/>
<path d="M360.011 21.2507C361.074 31.0923 354.207 39.5255 347.235 44.3755L347.225 44.3834C341.845 48.2443 336.478 52.0393 331.318 55.9243C324.248 61.3724 316.606 66.6417 315.131 74.4137L315.13 74.4216C314.131 79.0346 315.463 83.2302 318.53 86.9178C323.214 92.5505 330.922 95.8678 337.905 93.6517C344.492 91.5612 350.076 86.5202 351.885 83.6766C351.948 83.555 352.011 83.4319 352.072 83.308C354.395 78.7223 354.888 73.5018 353.126 68.6557C351.968 65.3289 350.012 62.2215 347.763 59.3029C347.369 58.7913 347.427 58.0607 347.907 57.6282C348.397 57.1864 349.151 57.2135 349.597 57.7C352.202 60.5426 354.567 63.7355 356.104 67.5003C358.471 72.9526 358.019 79.7088 355.313 84.9373C355.239 85.0883 355.164 85.2381 355.087 85.3862C346.417 99.6949 331.916 99.7889 325.749 98.0472C315.13 94.4326 308.28 86.2087 308.809 73.4959L308.81 73.4837C310.112 62.0103 318.842 54.5587 326.111 48.8548C331.572 44.7456 337.187 41.175 342.842 37.6504C342.849 37.646 342.856 37.6419 342.862 37.6379C342.858 37.6402 342.855 37.6424 342.851 37.6446L342.884 37.6245C342.946 37.5861 343.059 37.5161 342.862 37.6379C349.081 33.8299 354.55 28.4521 354.686 21.5198C354.918 14.6337 349.484 7.56604 342.589 4.91896L342.573 4.91323C331.105 0.117193 316.111 8.32116 314.747 20.902C314.745 20.9141 314.744 20.9265 314.743 20.9385C314.298 24.2928 314.609 27.6981 315.763 30.8465C317.073 34.4267 319.462 37.8186 322.532 40.0042C323.047 40.3493 323.207 41.0471 322.895 41.5831C322.583 42.1183 321.9 42.3192 321.353 42.0295C317.419 39.7906 314.515 36.2068 312.754 32.0578C311.227 28.4332 310.77 24.3526 311.289 20.4775L311.294 20.4352C313.039 5.41969 330.345 -3.93863 343.819 1.61869C343.825 1.62102 343.831 1.62279 343.837 1.62513C351.744 4.78881 358.899 11.6431 360.011 21.2507Z" fill="#5471BC"/>
<path d="M298.572 21.2507C299.634 31.0923 292.767 39.5255 285.796 44.3755L285.785 44.3834C280.405 48.2443 275.038 52.0393 269.879 55.9243C262.808 61.3724 255.166 66.6417 253.692 74.4137L253.69 74.4216C252.692 79.0346 254.024 83.2302 257.091 86.9178C261.775 92.5505 269.482 95.8678 276.465 93.6517C283.052 91.5612 288.636 86.5202 290.446 83.6766C290.509 83.555 290.571 83.4319 290.632 83.308C292.955 78.7223 293.449 73.5018 291.687 68.6557C290.528 65.3289 288.573 62.2215 286.323 59.3029C285.929 58.7913 285.987 58.0607 286.467 57.6282C286.957 57.1864 287.711 57.2135 288.157 57.7C290.762 60.5426 293.127 63.7355 294.665 67.5003C297.032 72.9526 296.579 79.7088 293.873 84.9373C293.799 85.0883 293.724 85.2381 293.647 85.3862C284.977 99.6949 270.476 99.7889 264.309 98.0472C253.69 94.4326 246.84 86.2087 247.37 73.4959L247.371 73.4837C248.672 62.0103 257.403 54.5587 264.672 48.8548C270.132 44.7456 275.748 41.175 281.402 37.6504C281.409 37.646 281.416 37.6419 281.423 37.6379C281.419 37.6402 281.415 37.6424 281.412 37.6446L281.444 37.6245C281.507 37.5861 281.62 37.5161 281.423 37.6379C287.641 33.8299 293.111 28.4521 293.247 21.5198C293.478 14.6337 288.045 7.56604 281.149 4.91896L281.134 4.91323C269.666 0.117193 254.671 8.32116 253.307 20.902C253.306 20.9141 253.305 20.9265 253.303 20.9385C252.859 24.2928 253.169 27.6981 254.323 30.8465C255.633 34.4267 258.022 37.8186 261.092 40.0042C261.608 40.3493 261.767 41.0471 261.455 41.5831C261.144 42.1183 260.461 42.3192 259.913 42.0295C255.98 39.7906 253.076 36.2068 251.315 32.0578C249.788 28.4332 249.33 24.3526 249.849 20.4775L249.855 20.4352C251.6 5.41969 268.905 -3.93863 282.379 1.61869C282.385 1.62102 282.392 1.62279 282.398 1.62513C290.305 4.78881 297.459 11.6431 298.572 21.2507Z" fill="#5471BC"/>
<path d="M237.13 21.2507C238.215 31.0923 231.201 39.5255 224.079 44.3755L224.068 44.3834C218.573 48.2443 213.091 52.0393 207.82 55.9243C200.597 61.3724 192.791 66.6417 191.285 74.4137L191.283 74.4216C190.242 79.1286 191.68 83.4009 194.95 87.1425C199.704 92.5822 207.249 95.7935 214.182 93.7621C221.069 91.744 226.948 86.5716 228.829 83.6766C228.894 83.555 228.958 83.4319 229.02 83.308C231.393 78.7223 231.897 73.5018 230.097 68.6557C228.917 65.3376 226.926 62.2378 224.636 59.3259C224.226 58.8041 224.286 58.0509 224.784 57.6117C225.277 57.1765 226.026 57.2034 226.476 57.6834C229.143 60.5301 231.565 63.7282 233.139 67.5003C235.557 72.9526 235.094 79.7088 232.33 84.9373C232.255 85.0883 232.178 85.2381 232.099 85.3862C223.243 99.6949 208.43 99.7889 202.131 98.0472C191.283 94.4326 184.286 86.2087 184.827 73.4959L184.828 73.4837C186.157 62.0103 195.076 54.5587 202.501 48.8548C208.079 44.7456 213.815 41.175 219.591 37.6504C219.599 37.646 219.605 37.6419 219.612 37.638C219.608 37.6402 219.604 37.6424 219.601 37.6446C219.598 37.6465 219.875 37.479 219.612 37.638C225.964 33.8299 231.551 28.4522 231.691 21.5198C231.927 14.6337 226.376 7.56604 219.333 4.91896L219.317 4.91323C207.602 0.117193 192.285 8.32116 190.892 20.902C190.89 20.9141 190.889 20.9265 190.888 20.9385C190.434 24.2928 190.751 27.6981 191.93 30.8465C193.268 34.4267 195.708 37.8186 198.844 40.0042C199.371 40.3494 199.532 41.0495 199.211 41.5907C198.891 42.1282 198.207 42.3234 197.652 42.0357L197.64 42.0295C193.622 39.7906 190.655 36.2068 188.857 32.0578C187.297 28.4332 186.83 24.3526 187.36 20.4775L187.365 20.4352C189.148 5.41969 206.825 -3.93863 220.589 1.61869C220.595 1.62102 220.602 1.62279 220.608 1.62513C228.685 4.78881 235.994 11.6431 237.13 21.2507Z" fill="#5471BC"/>
<path d="M174.589 21.2507C175.651 31.0923 168.784 39.5255 161.812 44.3755L161.802 44.3834C156.422 48.2443 151.055 52.0393 145.895 55.9243C138.825 61.3724 131.183 66.6417 129.708 74.4137L129.707 74.4216C128.708 79.0346 130.04 83.2302 133.107 86.9178C137.792 92.5505 145.499 95.8678 152.482 93.6517C159.069 91.5612 164.653 86.5202 166.462 83.6766C166.526 83.555 166.588 83.4319 166.649 83.308C168.972 78.7223 169.465 73.5018 167.703 68.6557C166.545 65.3289 164.589 62.2215 162.34 59.3029C161.946 58.7913 162.004 58.0607 162.484 57.6282C162.974 57.1864 163.728 57.2135 164.174 57.7C166.779 60.5426 169.144 63.7355 170.682 67.5003C173.048 72.9526 172.596 79.7088 169.89 84.9373C169.816 85.0883 169.741 85.2381 169.664 85.3862C160.994 99.6949 146.493 99.7889 140.326 98.0472C129.707 94.4326 122.857 86.2087 123.386 73.4959L123.388 73.4837C124.689 62.0103 133.419 54.5587 140.689 48.8548C146.149 44.7456 151.764 41.175 157.419 37.6504C157.426 37.646 157.433 37.6419 157.439 37.6379C157.436 37.6402 157.432 37.6424 157.428 37.6446L157.461 37.6245C157.523 37.5861 157.637 37.5161 157.439 37.6379C163.658 33.8299 169.127 28.4521 169.264 21.5198C169.495 14.6337 164.061 7.56604 157.166 4.91896L157.15 4.91323C145.682 0.117193 130.688 8.32116 129.324 20.902C129.322 20.9141 129.321 20.9265 129.32 20.9385C128.876 24.2928 129.186 27.6981 130.34 30.8465C131.65 34.4267 134.039 37.8186 137.109 40.0042C137.624 40.3493 137.784 41.0471 137.472 41.5831C137.16 42.1183 136.477 42.3192 135.93 42.0295C131.996 39.7906 129.092 36.2068 127.331 32.0578C125.804 28.4332 125.347 24.3526 125.866 20.4775L125.872 20.4352C127.617 5.41969 144.922 -3.93863 158.396 1.61869C158.402 1.62102 158.408 1.62279 158.414 1.62513C166.321 4.78881 173.476 11.6431 174.589 21.2507Z" fill="#5471BC"/>
<path d="M113.149 21.2507C114.211 31.0923 107.344 39.5255 100.373 44.3755L100.362 44.3834C94.9823 48.2443 89.6156 52.0393 84.456 55.9243C77.3854 61.3724 69.7433 66.6417 68.269 74.4137L68.2676 74.4216C67.2688 79.0346 68.6008 83.2302 71.6677 86.9178C76.3521 92.5505 84.0595 95.8678 91.0423 93.6517C97.6295 91.5612 103.214 86.5202 105.023 83.6766C105.086 83.555 105.149 83.4319 105.209 83.308C107.532 78.7223 108.026 73.5018 106.264 68.6557C105.105 65.3289 103.15 62.2215 100.9 59.3029C100.506 58.7913 100.564 58.0607 101.044 57.6282C101.534 57.1864 102.288 57.2135 102.734 57.7C105.339 60.5426 107.704 63.7355 109.242 67.5003C111.609 72.9526 111.156 79.7088 108.45 84.9373C108.377 85.0883 108.301 85.2381 108.224 85.3862C99.5545 99.6949 85.0534 99.7889 78.8866 98.0472C68.2676 94.4326 61.4174 86.2087 61.9467 73.4959L61.9481 73.4837C63.2493 62.0103 71.98 54.5587 79.2491 48.8548C84.7094 44.7456 90.3248 41.175 95.9796 37.6504C95.9866 37.646 95.9933 37.6419 95.9997 37.6379C95.9961 37.6402 95.9924 37.6424 95.9888 37.6446L96.0213 37.6245C96.0837 37.5861 96.1971 37.5161 95.9997 37.6379C102.218 33.8299 107.688 28.4521 107.824 21.5198C108.055 14.6337 102.622 7.56604 95.7265 4.91896L95.711 4.91323C84.2429 0.117193 69.2483 8.32116 67.8845 20.902C67.8829 20.9141 67.8818 20.9265 67.8803 20.9385C67.4362 24.2928 67.7463 27.6981 68.9003 30.8465C70.2103 34.4267 72.5993 37.8186 75.6694 40.0042C76.1849 40.3493 76.3443 41.0471 76.0322 41.5831C75.7207 42.1183 75.0377 42.3192 74.4903 42.0295C70.5569 39.7906 67.6528 36.2068 65.8918 32.0578C64.365 28.4332 63.9075 24.3526 64.4264 20.4775L64.4321 20.4352C66.1772 5.41969 83.4824 -3.93863 96.9565 1.61869C96.9625 1.62102 96.9689 1.62279 96.9749 1.62513C104.882 4.78881 112.036 11.6431 113.149 21.2507Z" fill="#5471BC"/>
<path d="M51.7096 21.2507C52.772 31.0923 45.9049 39.5255 38.9334 44.3755L38.9228 44.3834C33.5428 48.2443 28.1762 52.0393 23.0165 55.9243C15.946 61.3724 8.3038 66.6417 6.82959 74.4137L6.82818 74.4216C5.82934 79.0346 7.16132 83.2302 10.2282 86.9178C14.9127 92.5505 22.6201 95.8678 29.6029 93.6517C36.19 91.5612 41.7741 86.5202 43.5833 83.6766C43.6466 83.555 43.7091 83.4319 43.7699 83.308C46.0929 78.7223 46.5866 73.5018 44.8246 68.6557C43.6659 65.3289 41.7102 62.2215 39.461 59.3029C39.0668 58.7913 39.125 58.0607 39.6048 57.6282C40.095 57.1864 40.8489 57.2135 41.2948 57.7C43.8998 60.5426 46.265 63.7355 47.8027 67.5003C50.1695 72.9526 49.7168 79.7088 47.011 84.9373C46.9371 85.0883 46.8619 85.2381 46.7848 85.3862C38.1151 99.6949 23.614 99.7889 17.4471 98.0472C6.82818 94.4326 -0.0220293 86.2087 0.507226 73.4959L0.508638 73.4837C1.8098 62.0103 10.5405 54.5587 17.8096 48.8548C23.2699 44.7456 28.8853 41.175 34.5401 37.6504C34.5472 37.646 34.5539 37.6419 34.5603 37.6379C34.5566 37.6402 34.553 37.6424 34.5493 37.6446L34.5819 37.6245C34.6443 37.5861 34.7577 37.5161 34.5603 37.6379C40.779 33.8299 46.2483 28.4521 46.3847 21.5198C46.616 14.6337 41.1822 7.56604 34.2871 4.91896L34.2715 4.91323C22.8034 0.117193 7.80882 8.32116 6.44505 20.902C6.44345 20.9141 6.44238 20.9265 6.44081 20.9385C5.99671 24.2928 6.30681 27.6981 7.46084 30.8465C8.77085 34.4267 11.1598 37.8186 14.23 40.0042C14.7454 40.3493 14.9048 41.0471 14.5928 41.5831C14.2812 42.1183 13.5982 42.3192 13.0509 42.0295C9.11746 39.7906 6.21338 36.2068 4.45235 32.0578C2.92559 28.4332 2.46803 24.3526 2.98697 20.4775L2.99263 20.4352C4.7377 5.41969 22.0429 -3.93863 35.517 1.61869C35.5231 1.62102 35.5294 1.62279 35.5354 1.62513C43.4425 4.78881 50.597 11.6431 51.7096 21.2507Z" fill="#5471BC"/>
</g>
<defs>
<clipPath id="clip0_1310_678">
<rect width="99" height="483" fill="white" transform="translate(483 2.11126e-05) rotate(90)"/>
</clipPath>
</defs>
</svg>