<svg width="388" height="69" viewBox="0 0 388 69" fill="none" xmlns="http://www.w3.org/2000/svg">
<path d="M357.029 55.975C356.263 48.8728 361.218 42.787 366.249 39.287L366.257 39.2813C370.139 36.4951 374.012 33.7565 377.736 30.9529C382.838 27.0213 388.353 23.2186 389.417 17.61L389.418 17.6043C389.63 16.6239 389.696 15.6696 389.628 14.7432C388.903 4.94582 374.863 1.03224 366.968 6.87891C365.043 8.30445 363.586 9.83772 362.894 10.9254C362.848 11.0132 362.803 11.1021 362.759 11.1915C361.083 14.5007 360.726 18.2681 361.998 21.7652C362.834 24.166 364.245 26.4085 365.868 28.5147C366.153 28.8839 366.111 29.4111 365.765 29.7232C365.411 30.042 364.867 30.0225 364.545 29.6714C362.665 27.6201 360.958 25.3159 359.849 22.5991C358.141 18.6644 358.467 13.7889 360.42 10.0157C360.473 9.9067 360.528 9.79863 360.583 9.69175C366.84 -0.634094 377.304 -0.701881 381.755 0.554962C389.418 3.16345 394.361 9.09816 393.979 18.2723L393.978 18.2811C393.039 26.5609 386.739 31.9383 381.493 36.0545C377.553 39.0199 373.5 41.5966 369.42 44.1402C369.415 44.1433 369.41 44.1462 369.405 44.149C369.408 44.1475 369.41 44.1459 369.413 44.1443L369.391 44.1576C369.347 44.1851 369.26 44.2384 369.405 44.149C364.917 46.8971 360.97 50.778 360.872 55.7807C360.705 60.7501 364.626 65.8504 369.602 67.7607L369.613 67.7648C377.889 71.2259 388.71 65.3055 389.694 56.2266C389.695 56.2179 389.696 56.2089 389.697 56.2002C390.018 53.7796 389.794 51.3222 388.961 49.0502C388.016 46.4665 386.292 44.0188 384.076 42.4415C383.704 42.1925 383.589 41.689 383.815 41.3021C384.039 40.9159 384.532 40.7709 384.927 40.98C387.766 42.5957 389.861 45.1819 391.132 48.176C392.234 50.7917 392.564 53.7365 392.19 56.5329L392.186 56.5634C390.926 67.3993 378.438 74.1527 368.715 70.1423C368.71 70.1406 368.706 70.1394 368.701 70.1377C362.995 67.8546 357.832 62.9083 357.029 55.975Z" fill="#5471BC"/>
<path d="M312.41 55.975C311.644 48.8728 316.599 42.787 321.63 39.287L321.638 39.2813C325.52 36.4951 329.393 33.7565 333.117 30.9529C338.219 27.0213 343.734 23.2186 344.798 17.61L344.799 17.6043C345.011 16.6239 345.078 15.6696 345.009 14.7432C344.285 4.94582 330.244 1.03224 322.349 6.87891C320.424 8.30445 318.967 9.83772 318.275 10.9254C318.229 11.0132 318.184 11.1021 318.14 11.1915C316.464 14.5007 316.107 18.2681 317.379 21.7652C318.215 24.166 319.626 26.4085 321.25 28.5147C321.534 28.8839 321.492 29.4111 321.146 29.7232C320.792 30.042 320.248 30.0225 319.926 29.6714C318.046 27.6201 316.34 25.3159 315.23 22.5991C313.522 18.6644 313.849 13.7889 315.801 10.0157C315.855 9.9067 315.909 9.79863 315.964 9.69175C322.221 -0.634094 332.686 -0.701881 337.136 0.554962C344.799 3.16345 349.742 9.09816 349.36 18.2723L349.359 18.2811C348.42 26.5609 342.12 31.9383 336.874 36.0545C332.934 39.0199 328.882 41.5966 324.801 44.1402C324.796 44.1433 324.791 44.1462 324.786 44.149C324.789 44.1475 324.792 44.1459 324.794 44.1443L324.773 44.1576C324.728 44.1851 324.642 44.2384 324.786 44.149C320.299 46.8971 316.352 50.778 316.253 55.7807C316.086 60.7501 320.007 65.8504 324.983 67.7607L324.995 67.7648C333.271 71.2259 344.091 65.3055 345.075 56.2266C345.077 56.2179 345.077 56.2089 345.079 56.2002C345.399 53.7796 345.175 51.3222 344.342 49.0502C343.397 46.4665 341.673 44.0188 339.458 42.4415C339.086 42.1925 338.97 41.689 339.196 41.3021C339.421 40.9159 339.913 40.7709 340.308 40.98C343.147 42.5957 345.243 45.1819 346.514 48.176C347.615 50.7917 347.945 53.7365 347.571 56.5329L347.567 56.5634C346.308 67.3993 333.819 74.1527 324.096 70.1423C324.091 70.1406 324.087 70.1394 324.082 70.1377C318.376 67.8546 313.213 62.9083 312.41 55.975Z" fill="#EFBF04"/>
<path d="M267.395 55.975C266.612 48.8728 271.674 42.787 276.813 39.287L276.821 39.2813C280.787 36.4951 284.743 33.7565 288.547 30.9529C293.759 27.0213 299.392 23.2186 300.479 17.61L300.48 17.6043C300.723 16.5054 300.779 15.4392 300.663 14.4082C299.584 4.78077 285.899 1.07087 277.943 6.59818C275.781 8.10008 274.139 9.76591 273.385 10.9254C273.339 11.0132 273.293 11.1021 273.248 11.1915C271.536 14.5007 271.172 18.2681 272.47 21.7652C273.322 24.1597 274.759 26.3967 276.411 28.4981C276.707 28.8746 276.664 29.4182 276.305 29.7351C275.949 30.0492 275.408 30.0298 275.084 29.6834C273.159 27.6291 271.411 25.3212 270.275 22.5991C268.53 18.6644 268.864 13.7889 270.859 10.0157C270.913 9.9067 270.969 9.79863 271.025 9.69175C277.416 -0.634094 288.106 -0.701881 292.652 0.554962C300.48 3.16345 305.53 9.09816 305.14 18.2723L305.139 18.2811C304.179 26.5609 297.743 31.9383 292.385 36.0545C288.36 39.0199 284.22 41.5966 280.052 44.1402C280.047 44.1433 280.042 44.1462 280.037 44.149C280.04 44.1474 280.042 44.1459 280.045 44.1443C280.047 44.143 279.847 44.2639 280.037 44.149C275.453 46.8971 271.421 50.778 271.32 55.7807C271.15 60.7501 275.155 65.8504 280.238 67.7607L280.25 67.7648C288.704 71.2259 299.757 65.3055 300.763 56.2266C300.764 56.2179 300.765 56.2089 300.766 56.2002C301.093 53.7796 300.864 51.3222 300.014 49.0502C299.048 46.4665 297.287 44.0188 295.024 42.4415C294.644 42.1924 294.527 41.6872 294.76 41.2966C294.99 40.9088 295.484 40.7679 295.884 40.9755L295.893 40.98C298.793 42.5957 300.933 45.1819 302.232 48.176C303.357 50.7917 303.694 53.7365 303.312 56.5329L303.308 56.5634C302.021 67.3993 289.264 74.1527 279.332 70.1423C279.327 70.1406 279.323 70.1394 279.318 70.1377C273.489 67.8546 268.215 62.9083 267.395 55.975Z" fill="#EFBF04"/>
<path d="M223.173 55.975C222.406 48.8728 227.362 42.787 232.393 39.287L232.4 39.2813C236.283 36.4951 240.156 33.7565 243.879 30.9529C248.982 27.0213 254.497 23.2186 255.56 17.61L255.561 17.6043C255.774 16.6239 255.84 15.6696 255.772 14.7432C255.047 4.94582 241.007 1.03224 233.112 6.87891C231.187 8.30445 229.729 9.83772 229.037 10.9254C228.992 11.0132 228.946 11.1021 228.903 11.1915C227.226 14.5007 226.87 18.2681 228.141 21.7652C228.978 24.166 230.389 26.4085 232.012 28.5147C232.297 28.8839 232.255 29.4111 231.908 29.7232C231.555 30.042 231.011 30.0225 230.689 29.6714C228.809 27.6201 227.102 25.3159 225.992 22.5991C224.284 18.6644 224.611 13.7889 226.564 10.0157C226.617 9.9067 226.671 9.79863 226.727 9.69175C232.983 -0.634094 243.448 -0.701881 247.898 0.554962C255.561 3.16345 260.505 9.09816 260.123 18.2723L260.122 18.2811C259.183 26.5609 252.882 31.9383 247.637 36.0545C243.696 39.0199 239.644 41.5966 235.563 44.1402C235.558 44.1433 235.553 44.1462 235.549 44.149C235.551 44.1475 235.554 44.1459 235.557 44.1443L235.535 44.1576C235.491 44.1851 235.404 44.2384 235.549 44.149C231.061 46.8971 227.114 50.778 227.016 55.7807C226.849 60.7501 230.77 65.8504 235.746 67.7607L235.757 67.7648C244.033 71.2259 254.854 65.3055 255.838 56.2266C255.839 56.2179 255.84 56.2089 255.841 56.2002C256.161 53.7796 255.938 51.3222 255.105 49.0502C254.16 46.4665 252.436 44.0188 250.22 42.4415C249.848 42.1925 249.733 41.689 249.958 41.3021C250.183 40.9159 250.676 40.7709 251.071 40.98C253.909 42.5957 256.005 45.1819 257.276 48.176C258.378 50.7917 258.708 53.7365 258.333 56.5329L258.329 56.5634C257.07 67.3993 244.582 74.1527 234.858 70.1423C234.854 70.1406 234.849 70.1394 234.845 70.1377C229.139 67.8546 223.976 62.9083 223.173 55.975Z" fill="#5471BC"/>
<path d="M178.554 55.975C177.787 48.8728 182.743 42.787 187.774 39.287L187.782 39.2813C191.664 36.4951 195.537 33.7565 199.26 30.9529C204.363 27.0213 209.878 23.2186 210.942 17.61L210.943 17.6043C211.155 16.6239 211.221 15.6696 211.153 14.7432C210.428 4.94582 196.388 1.03224 188.493 6.87891C186.568 8.30445 185.11 9.83772 184.418 10.9254C184.373 11.0132 184.328 11.1021 184.284 11.1915C182.607 14.5007 182.251 18.2681 183.523 21.7652C184.359 24.166 185.77 26.4085 187.393 28.5147C187.678 28.8839 187.636 29.4111 187.289 29.7232C186.936 30.042 186.392 30.0225 186.07 29.6714C184.19 27.6201 182.483 25.3159 181.374 22.5991C179.666 18.6644 179.992 13.7889 181.945 10.0157C181.998 9.9067 182.052 9.79863 182.108 9.69175C188.365 -0.634094 198.829 -0.701881 203.28 0.554962C210.943 3.16345 215.886 9.09816 215.504 18.2723L215.503 18.2811C214.564 26.5609 208.264 31.9383 203.018 36.0545C199.078 39.0199 195.025 41.5966 190.944 44.1402C190.939 44.1433 190.935 44.1462 190.93 44.149C190.933 44.1475 190.935 44.1459 190.938 44.1443L190.916 44.1576C190.872 44.1851 190.785 44.2384 190.93 44.149C186.442 46.8971 182.495 50.778 182.397 55.7807C182.23 60.7501 186.151 65.8504 191.127 67.7607L191.138 67.7648C199.414 71.2259 210.235 65.3055 211.219 56.2266C211.22 56.2179 211.221 56.2089 211.222 56.2002C211.543 53.7796 211.319 51.3222 210.486 49.0502C209.541 46.4665 207.817 44.0188 205.601 42.4415C205.229 42.1925 205.114 41.689 205.339 41.3021C205.564 40.9159 206.057 40.7709 206.452 40.98C209.291 42.5957 211.386 45.1819 212.657 48.176C213.759 50.7917 214.089 53.7365 213.715 56.5329L213.711 56.5634C212.451 67.3993 199.963 74.1527 190.239 70.1423C190.235 70.1406 190.23 70.1394 190.226 70.1377C184.52 67.8546 179.357 62.9083 178.554 55.975Z" fill="#5471BC"/>
<path d="M133.935 55.975C133.169 48.8728 138.124 42.787 143.155 39.287L143.163 39.2813C147.045 36.4951 150.918 33.7565 154.642 30.9529C159.744 27.0213 165.259 23.2186 166.323 17.61L166.324 17.6043C166.536 16.6239 166.603 15.6696 166.534 14.7432C165.81 4.94582 151.769 1.03224 143.874 6.87891C141.949 8.30445 140.492 9.83772 139.8 10.9254C139.754 11.0132 139.709 11.1021 139.665 11.1915C137.989 14.5007 137.632 18.2681 138.904 21.7652C139.74 24.166 141.151 26.4085 142.774 28.5147C143.059 28.8839 143.017 29.4111 142.671 29.7232C142.317 30.042 141.773 30.0225 141.451 29.6714C139.571 27.6201 137.864 25.3159 136.755 22.5991C135.047 18.6644 135.373 13.7889 137.326 10.0157C137.379 9.9067 137.434 9.79863 137.489 9.69175C143.746 -0.634094 154.21 -0.701881 158.661 0.554962C166.324 3.16345 171.267 9.09816 170.885 18.2723L170.884 18.2811C169.945 26.5609 163.645 31.9383 158.399 36.0545C154.459 39.0199 150.406 41.5966 146.326 44.1402C146.321 44.1433 146.316 44.1462 146.311 44.149C146.314 44.1475 146.316 44.1459 146.319 44.1443L146.297 44.1576C146.253 44.1851 146.166 44.2384 146.311 44.149C141.823 46.8971 137.876 50.778 137.778 55.7807C137.611 60.7501 141.532 65.8504 146.508 67.7607L146.519 67.7648C154.795 71.2259 165.616 65.3055 166.6 56.2266C166.601 56.2179 166.602 56.2089 166.603 56.2002C166.924 53.7796 166.7 51.3222 165.867 49.0502C164.922 46.4665 163.198 44.0188 160.982 42.4415C160.61 42.1925 160.495 41.689 160.721 41.3021C160.945 40.9159 161.438 40.7709 161.833 40.98C164.672 42.5957 166.768 45.1819 168.038 48.176C169.14 50.7917 169.47 53.7365 169.096 56.5329L169.092 56.5634C167.832 67.3993 155.344 74.1527 145.621 70.1423C145.616 70.1406 145.612 70.1394 145.607 70.1377C139.901 67.8546 134.738 62.9083 133.935 55.975Z" fill="#5471BC"/>
<path d="M88.9198 55.975C88.1366 48.8728 93.1988 42.787 98.338 39.287L98.3458 39.2813C102.312 36.4951 106.268 33.7565 110.071 30.9529C115.284 27.0213 120.917 23.2186 122.004 17.61L122.005 17.6043C122.248 16.5054 122.304 15.4392 122.188 14.4082C121.108 4.78077 107.424 1.07087 99.4678 6.59818C97.3059 8.10008 95.6638 9.76591 94.9102 10.9254C94.8635 11.0132 94.8175 11.1021 94.7727 11.1915C93.0602 14.5007 92.6963 18.2681 93.9952 21.7652C94.8471 24.1597 96.2835 26.3967 97.936 28.4981C98.2321 28.8746 98.1887 29.4182 97.8295 29.7351C97.4736 30.0492 96.933 30.0298 96.6085 29.6834C94.6837 27.6291 92.9356 25.3212 91.7998 22.5991C90.0551 18.6644 90.3888 13.7889 92.3835 10.0157C92.4379 9.9067 92.4934 9.79863 92.5502 9.69175C98.9412 -0.634094 109.631 -0.701881 114.177 0.554962C122.005 3.16345 127.055 9.09816 126.664 18.2723L126.663 18.2811C125.704 26.5609 119.268 31.9383 113.91 36.0545C109.885 39.0199 105.745 41.5966 101.577 44.1402C101.571 44.1433 101.567 44.1462 101.562 44.149C101.565 44.1474 101.567 44.1459 101.57 44.1443C101.572 44.143 101.372 44.2639 101.562 44.149C96.9776 46.8971 92.9457 50.778 92.8451 55.7807C92.6746 60.7501 96.6802 65.8504 101.763 67.7607L101.775 67.7648C110.228 71.2259 121.282 65.3055 122.287 56.2266C122.288 56.2179 122.289 56.2089 122.29 56.2002C122.618 53.7796 122.389 51.3222 121.538 49.0502C120.573 46.4665 118.812 44.0188 116.549 42.4415C116.168 42.1924 116.052 41.6872 116.284 41.2966C116.515 40.9088 117.008 40.7679 117.409 40.9755L117.418 40.98C120.317 42.5957 122.458 45.1819 123.756 48.176C124.882 50.7917 125.219 53.7365 124.836 56.5329L124.832 56.5634C123.546 67.3993 110.789 74.1527 100.856 70.1423C100.852 70.1406 100.847 70.1394 100.843 70.1377C95.014 67.8546 89.74 62.9083 88.9198 55.975Z" fill="#5471BC"/>
<path d="M44.6976 55.975C43.931 48.8728 48.8866 42.787 53.9175 39.287L53.9252 39.2813C57.8076 36.4951 61.6805 33.7565 65.4039 30.9529C70.5064 27.0213 76.0213 23.2186 77.0852 17.61L77.0862 17.6043C77.2985 16.6239 77.3649 15.6696 77.2964 14.7432C76.5719 4.94582 62.5313 1.03224 54.6364 6.87891C52.7115 8.30445 51.254 9.83772 50.562 10.9254C50.5163 11.0132 50.4712 11.1021 50.4273 11.1915C48.7509 14.5007 48.3947 18.2681 49.6662 21.7652C50.5023 24.166 51.9137 26.4085 53.5368 28.5147C53.8213 28.8839 53.7793 29.4111 53.433 29.7232C53.0793 30.042 52.5352 30.0225 52.2135 29.6714C50.3336 27.6201 48.6267 25.3159 47.5171 22.5991C45.8091 18.6644 46.1358 13.7889 48.0884 10.0157C48.1417 9.9067 48.196 9.79863 48.2516 9.69175C54.5081 -0.634094 64.9728 -0.701881 69.4231 0.554962C77.0862 3.16345 82.0296 9.09816 81.6477 18.2723L81.6467 18.2811C80.7077 26.5609 74.4072 31.9383 69.1615 36.0545C65.2211 39.0199 61.1687 41.5966 57.0879 44.1402C57.0829 44.1433 57.0781 44.1462 57.0736 44.149C57.0761 44.1475 57.0787 44.1459 57.0813 44.1443L57.0598 44.1576C57.0153 44.1851 56.9288 44.2384 57.0736 44.149C52.5857 46.8971 48.6388 50.778 48.5404 55.7807C48.3734 60.7501 52.2947 65.8504 57.2706 67.7607L57.2818 67.7648C65.5577 71.2259 76.3785 65.3055 77.3627 56.2266C77.3638 56.2179 77.3646 56.2089 77.3657 56.2002C77.6862 53.7796 77.4624 51.3222 76.6296 49.0502C75.6843 46.4665 73.9603 44.0188 71.7447 42.4415C71.3727 42.1925 71.2577 41.689 71.4829 41.3021C71.7077 40.9159 72.2006 40.7709 72.5956 40.98C75.4341 42.5957 77.5299 45.1819 78.8007 48.176C79.9025 50.7917 80.2327 53.7365 79.8582 56.5329L79.8541 56.5634C78.5948 67.3993 66.1065 74.1527 56.3829 70.1423C56.3786 70.1406 56.374 70.1394 56.3697 70.1377C50.6636 67.8546 45.5006 62.9083 44.6976 55.975Z" fill="#5471BC"/>
<path d="M0.078819 55.975C-0.687812 48.8728 4.2678 42.787 9.29874 39.287L9.30639 39.2813C13.1888 36.4951 17.0617 33.7565 20.7851 30.9529C25.8876 27.0213 31.4025 23.2186 32.4664 17.61L32.4674 17.6043C32.6797 16.6239 32.7461 15.6696 32.6776 14.7432C31.9531 4.94582 17.9125 1.03224 10.0176 6.87891C8.09267 8.30445 6.63522 9.83772 5.94316 10.9254C5.89747 11.0132 5.85241 11.1021 5.80849 11.1915C4.13214 14.5007 3.77586 18.2681 5.04739 21.7652C5.88354 24.166 7.29488 26.4085 8.91798 28.5147C9.20251 28.8839 9.16045 29.4111 8.81422 29.7232C8.46049 30.042 7.91643 30.0225 7.59468 29.6714C5.71476 27.6201 4.00794 25.3159 2.89826 22.5991C1.19027 18.6644 1.51696 13.7889 3.46959 10.0157C3.52291 9.9067 3.57718 9.79863 3.63283 9.69175C9.88928 -0.634094 20.354 -0.701881 24.8043 0.554962C32.4674 3.16345 37.4108 9.09816 37.0289 18.2723L37.0279 18.2811C36.0889 26.5609 29.7884 31.9383 24.5427 36.0545C20.6023 39.0199 16.5499 41.5966 12.4691 44.1402C12.4641 44.1433 12.4593 44.1462 12.4548 44.149C12.4573 44.1475 12.4599 44.1459 12.4625 44.1443L12.441 44.1576C12.3965 44.1851 12.31 44.2384 12.4548 44.149C7.96694 46.8971 4.02 50.778 3.92156 55.7807C3.75463 60.7501 7.67588 65.8504 12.6518 67.7607L12.663 67.7648C20.9389 71.2259 31.7597 65.3055 32.7439 56.2266C32.745 56.2179 32.7458 56.2089 32.7469 56.2002C33.0674 53.7796 32.8436 51.3222 32.0108 49.0502C31.0655 46.4665 29.3415 44.0188 27.1259 42.4415C26.7539 42.1925 26.6389 41.689 26.8641 41.3021C27.0889 40.9159 27.5818 40.7709 27.9768 40.98C30.8153 42.5957 32.9111 45.1819 34.1819 48.176C35.2837 50.7917 35.6139 53.7365 35.2394 56.5329L35.2353 56.5634C33.976 67.3993 21.4877 74.1527 11.7641 70.1423C11.7598 70.1406 11.7552 70.1394 11.7509 70.1377C6.04478 67.8546 0.881754 62.9083 0.078819 55.975Z" fill="#5471BC"/>
</svg>