<svg width="517" height="261" viewBox="0 0 517 261" fill="none" xmlns="http://www.w3.org/2000/svg">
<path d="M194.731 158.167L194.928 157.707L194.71 157.614L194.5 157.723L194.731 158.167ZM243.731 179.167L243.534 179.626L243.852 179.763L244.092 179.513L243.731 179.167ZM328.231 91.1667L328.409 90.6992L328.1 90.5821L327.871 90.8204L328.231 91.1667ZM395.481 116.667L395.304 117.134L395.6 117.246L395.828 117.027L395.481 116.667ZM511.565 2.66675C511.565 4.13951 512.759 5.33341 514.231 5.33341C515.704 5.33341 516.898 4.13951 516.898 2.66675C516.898 1.19399 515.704 8.13007e-05 514.231 8.13007e-05C512.759 8.13007e-05 511.565 1.19399 511.565 2.66675ZM0.231323 259.667L0.462645 260.11L194.963 158.61L194.731 158.167L194.5 157.723L1.2964e-06 259.223L0.231323 259.667ZM194.731 158.167L194.534 158.626L243.534 179.626L243.731 179.167L243.928 178.707L194.928 157.707L194.731 158.167ZM243.731 179.167L244.092 179.513L328.592 91.5131L328.231 91.1667L327.871 90.8204L243.371 178.82L243.731 179.167ZM328.231 91.1667L328.054 91.6343L395.304 117.134L395.481 116.667L395.659 116.199L328.409 90.6992L328.231 91.1667ZM395.481 116.667L395.828 117.027L514.578 3.02744L514.231 2.66675L513.885 2.30605L395.135 116.306L395.481 116.667Z" fill="#FFD500"/>
</svg>